<svg xmlns="http://www.w3.org/2000/svg" width="201.074" height="54.987" viewBox="0 0 201.074 54.987">
  <g id="fyru_navnetrekk_navnetrekkogsymbol_beige" transform="translate(0.154 0.987)">
    <path id="Fill_1" data-name="Fill 1" d="M13.981,6.119a1.146,1.146,0,0,1-.9-.438C11.13,3.2,9.637,2.276,7.57,2.276S4.388,3.557,2.216,5.716c-.77.773-.935.874-1.613.134-.834-.907-.728-.945-.135-1.6C2.81,1.492,4.636,0,7.57,0c2.808,0,4.928,1.241,7.314,4.281a1.133,1.133,0,0,1-.2,1.6,1.148,1.148,0,0,1-.7.241" transform="translate(0.614 18.545)" fill="#1c2731"/>
    <path id="Stroke_2" data-name="Stroke 2" d="M13.981,6.119a1.146,1.146,0,0,1-.9-.438C11.13,3.2,9.637,2.276,7.57,2.276S4.388,3.557,2.216,5.716c-.77.773-.935.874-1.613.134-.834-.907-.728-.945-.135-1.6C2.81,1.492,4.636,0,7.57,0c2.808,0,4.928,1.241,7.314,4.281a1.133,1.133,0,0,1-.2,1.6A1.148,1.148,0,0,1,13.981,6.119Z" transform="translate(0.614 18.545)" fill="none" stroke="#1c2731" stroke-miterlimit="10" stroke-width="1.75"/>
    <path id="Fill_4" data-name="Fill 4" d="M7.373,6.129c-3.217,0-5.119-1.928-7.1-4.256A1.133,1.133,0,0,1,.406.269,1.15,1.15,0,0,1,2.019.4c1.99,2.338,3.3,3.45,5.354,3.45,2.086,0,3.531-.894,5.52-3.417A1.151,1.151,0,0,1,14.5.242a1.134,1.134,0,0,1,.2,1.6A13.187,13.187,0,0,1,11.328,5.05,7.371,7.371,0,0,1,7.373,6.129" transform="translate(13.45 22.388)" fill="#1c2731"/>
    <path id="Stroke_5" data-name="Stroke 5" d="M7.373,6.129c-3.217,0-5.119-1.928-7.1-4.256A1.133,1.133,0,0,1,.406.269,1.15,1.15,0,0,1,2.019.4c1.99,2.338,3.3,3.45,5.354,3.45,2.086,0,3.531-.894,5.52-3.417A1.151,1.151,0,0,1,14.5.242a1.134,1.134,0,0,1,.2,1.6A13.187,13.187,0,0,1,11.328,5.05,7.371,7.371,0,0,1,7.373,6.129Z" transform="translate(13.45 22.388)" fill="none" stroke="#1c2731" stroke-miterlimit="10" stroke-width="1.75"/>
    <path id="Fill_6" data-name="Fill 6" d="M13.785,6.119a1.146,1.146,0,0,1-.9-.438C10.908,3.167,9.467,2.276,7.373,2.276c-2.064,0-3.371,1.11-5.354,3.44A1.15,1.15,0,0,1,.406,5.85a1.133,1.133,0,0,1-.135-1.6C2.613,1.492,4.439,0,7.373,0c3.282,0,5.3,1.711,7.314,4.281a1.133,1.133,0,0,1-.2,1.6,1.147,1.147,0,0,1-.7.241" transform="translate(26.099 18.545)" fill="#1c2731"/>
    <path id="Stroke_7" data-name="Stroke 7" d="M13.785,6.119a1.146,1.146,0,0,1-.9-.438C10.908,3.167,9.467,2.276,7.373,2.276c-2.064,0-3.371,1.11-5.354,3.44A1.15,1.15,0,0,1,.406,5.85a1.133,1.133,0,0,1-.135-1.6C2.613,1.492,4.439,0,7.373,0c3.282,0,5.3,1.711,7.314,4.281a1.133,1.133,0,0,1-.2,1.6A1.147,1.147,0,0,1,13.785,6.119Z" transform="translate(26.099 18.545)" fill="none" stroke="#1c2731" stroke-miterlimit="10" stroke-width="1.75"/>
    <path id="Fill_8" data-name="Fill 8" d="M7.373,6.129c-3.216,0-5.119-1.928-7.1-4.256A1.134,1.134,0,0,1,.4.269,1.15,1.15,0,0,1,2.019.4c1.99,2.338,3.3,3.45,5.354,3.45,2.086,0,3.531-.894,5.52-3.417A1.15,1.15,0,0,1,14.5.242a1.134,1.134,0,0,1,.2,1.6A13.187,13.187,0,0,1,11.328,5.05,7.371,7.371,0,0,1,7.373,6.129" transform="translate(38.738 22.388)" fill="#1c2731"/>
    <path id="Stroke_9" data-name="Stroke 9" d="M7.373,6.129c-3.216,0-5.119-1.928-7.1-4.256A1.134,1.134,0,0,1,.4.269,1.15,1.15,0,0,1,2.019.4c1.99,2.338,3.3,3.45,5.354,3.45,2.086,0,3.531-.894,5.52-3.417A1.15,1.15,0,0,1,14.5.242a1.134,1.134,0,0,1,.2,1.6A13.187,13.187,0,0,1,11.328,5.05,7.371,7.371,0,0,1,7.373,6.129Z" transform="translate(38.738 22.388)" fill="none" stroke="#1c2731" stroke-miterlimit="10" stroke-width="1.75"/>
    <path id="Fill_10" data-name="Fill 10" d="M14.5,5.877c.739-.729.88-.787.194-1.6C12.67,1.711,10.649,0,7.373,0,4.44,0,2.614,1.492.271,4.246a1.132,1.132,0,0,0,.135,1.6,1.15,1.15,0,0,0,1.613-.134C4,3.385,5.309,2.276,7.373,2.276c2.092,0,4.694,2.491,5.52,3.407s.888.9,1.608.194" transform="translate(51.386 18.545)" fill="#1c2731"/>
    <path id="Stroke_11" data-name="Stroke 11" d="M14.5,5.877c.739-.729.88-.787.194-1.6C12.67,1.711,10.649,0,7.373,0,4.44,0,2.614,1.492.271,4.246a1.132,1.132,0,0,0,.135,1.6,1.15,1.15,0,0,0,1.613-.134C4,3.385,5.309,2.276,7.373,2.276c2.092,0,4.694,2.491,5.52,3.407S13.781,6.585,14.5,5.877Z" transform="translate(51.386 18.545)" fill="none" stroke="#1c2731" stroke-miterlimit="10" stroke-width="1.75"/>
    <path id="Fill_12" data-name="Fill 12" d="M10.827,40.8h-2.4V16.163H0V14.009H8.431v2.154h2.4V40.8ZM19.3,16.162H10.827V14.009h-2.4V10.787c0-3.42.843-6.085,2.507-7.923C12.658.963,15.214,0,18.535,0a17.184,17.184,0,0,1,7.533,1.643l-.781,1.914a13.649,13.649,0,0,0-6.629-1.4c-2.7,0-4.729.786-6.038,2.338a9.234,9.234,0,0,0-1.793,6.089v3.428H19.3v2.153Z" transform="translate(79.294 0.013)" fill="#1c2731"/>
    <path id="Stroke_13" data-name="Stroke 13" d="M10.827,40.8h-2.4V16.163H0V14.009H8.431v2.154h2.4V40.8ZM19.3,16.162H10.827V14.009h-2.4V10.787c0-3.42.843-6.085,2.507-7.923C12.658.963,15.214,0,18.535,0a17.184,17.184,0,0,1,7.533,1.643l-.781,1.914a13.649,13.649,0,0,0-6.629-1.4c-2.7,0-4.729.786-6.038,2.338a9.234,9.234,0,0,0-1.793,6.089v3.428H19.3v2.153Z" transform="translate(79.294 0.013)" fill="none" stroke="#1c2731" stroke-linecap="round" stroke-linejoin="round" stroke-miterlimit="10" stroke-width="2"/>
    <path id="Fill_15" data-name="Fill 15" d="M.4,38.421l.669-2.139a8.945,8.945,0,0,0,2.633.431c4.186,0,6.815-3.008,8.448-7.087l.949-2.333L0,0H2.589l7.852,16.822c1.066,2.277,2.409,5.163,3.7,7.582h.225c1.077-2.4,2.226-5.29,3.165-7.582L24.525,0h2.447L14.288,30.159c-1.612,4.462-4.965,8.819-10.665,8.819A9.435,9.435,0,0,1,.4,38.421" transform="translate(110.206 14.022)" fill="#1c2731"/>
    <path id="Stroke_16" data-name="Stroke 16" d="M.4,38.421l.669-2.139a8.945,8.945,0,0,0,2.633.431c4.186,0,6.815-3.008,8.448-7.087l.949-2.333L0,0H2.589l7.852,16.822c1.066,2.277,2.409,5.163,3.7,7.582h.225c1.077-2.4,2.226-5.29,3.165-7.582L24.525,0h2.447L14.288,30.159c-1.612,4.462-4.965,8.819-10.665,8.819A9.435,9.435,0,0,1,.4,38.421Z" transform="translate(110.206 14.022)" fill="none" stroke="#1c2731" stroke-linecap="round" stroke-linejoin="round" stroke-miterlimit="10" stroke-width="2"/>
    <path id="Fill_18" data-name="Fill 18" d="M0,.669H2.115L2.4,7.29h.112C5.418,3,9.807,0,15.187,0a11.827,11.827,0,0,1,5.431,1.116L20.08,3.128a12.767,12.767,0,0,0-5.094-.974c-4.507,0-8.747,2.469-12.493,8.566V27.46H0V.669" transform="translate(149.688 13.353)" fill="#1c2731"/>
    <path id="Stroke_19" data-name="Stroke 19" d="M0,.669H2.115L2.4,7.29h.112C5.418,3,9.807,0,15.187,0a11.827,11.827,0,0,1,5.431,1.116L20.08,3.128a12.767,12.767,0,0,0-5.094-.974c-4.507,0-8.747,2.469-12.493,8.566V27.46H0Z" transform="translate(149.688 13.353)" fill="none" stroke="#1c2731" stroke-linecap="round" stroke-linejoin="round" stroke-miterlimit="10" stroke-width="2"/>
    <path id="Fill_20" data-name="Fill 20" d="M.389,25.231c5.349,0,7.6-2.9,7.6-8.873V0h2.493V16.687C10.478,23.95,7.339,27.46.8,27.46H0" transform="translate(189.441 14.022)" fill="#1c2731"/>
    <path id="Stroke_21" data-name="Stroke 21" d="M.389,25.231c5.349,0,7.6-2.9,7.6-8.873V0h2.493V16.687C10.478,23.95,7.339,27.46.8,27.46H0" transform="translate(189.441 14.022)" fill="none" stroke="#1c2731" stroke-linecap="round" stroke-linejoin="round" stroke-miterlimit="10" stroke-width="2"/>
    <path id="Fill_23" data-name="Fill 23" d="M9.676,27.46C3.139,27.46,0,23.95,0,16.687V0H2.493V16.358c0,5.97,2.246,8.873,7.6,8.873" transform="translate(179.765 14.022)" fill="#1c2731"/>
    <path id="Stroke_24" data-name="Stroke 24" d="M9.676,27.46C3.139,27.46,0,23.95,0,16.687V0H2.493V16.358c0,5.97,2.246,8.873,7.6,8.873" transform="translate(179.765 14.022)" fill="none" stroke="#1c2731" stroke-linecap="round" stroke-linejoin="round" stroke-miterlimit="10" stroke-width="2"/>
  </g>
</svg>
